<svg width="32" height="32" viewBox="0 0 32 32" fill="none" xmlns="http://www.w3.org/2000/svg">
  <path d="M24.727,18.33h-1.63a.542.542,0,0,0-.542.542v5.945a.542.542,0,0,0,.542.542h1.63a2.727,2.727,0,0,0,2.727-2.727v-1.573A2.727,2.727,0,0,0,24.727,18.33Z" fill="#a0aec0"/>
  <path d="M7.273,18.33H8.9a.542.542,0,0,1,.542.542v5.945a.542.542,0,0,1-.542.542H7.273A2.727,2.727,0,0,1,4.545,22.64v-1.573A2.727,2.727,0,0,1,7.273,18.33Z" fill="#a0aec0"/>
  <path d="M16,6.545a8.727,8.727,0,0,0-8.727,8.727.542.542,0,0,0,.545.545h16.364a.542.542,0,0,0,.545-.545A8.727,8.727,0,0,0,16,6.545Z" fill="#667eea"/>
  <path d="M16,11.5a.542.542,0,0,0-.542.542v4.863a.542.542,0,1,0,1.083,0V12.045A.542.542,0,0,0,16,11.5Z" fill="#fff"/>
  <path d="M19.66,13.21a.542.542,0,0,0-.767.767l2.182,2.182a.542.542,0,1,0,.767-.767Z" fill="#fff"/>
  <path d="M12.34,13.21,10.158,15.4a.542.542,0,0,0,.767.767L13.107,14a.542.542,0,0,0-.767-.767Z" fill="#fff"/>
</svg> 